<svg width="20" height="20" viewBox="0 0 20 20" fill="none" xmlns="http://www.w3.org/2000/svg">
<g clip-path="url(#clip0_9_41)">
<path d="M18.3334 16.6667V10.145C18.3334 9.69126 18.2408 9.2423 18.0613 8.8256C17.8817 8.40891 17.619 8.03325 17.2892 7.72165L11.145 1.91498C10.8356 1.62242 10.4259 1.45941 10 1.45941C9.57417 1.45941 9.16447 1.62242 8.85502 1.91498L2.71085 7.72165C2.38104 8.03325 2.11831 8.40891 1.93877 8.8256C1.75922 9.2423 1.66664 9.69126 1.66669 10.145V16.6667C1.66669 17.1087 1.84228 17.5326 2.15484 17.8452C2.4674 18.1577 2.89133 18.3333 3.33335 18.3333H16.6667C17.1087 18.3333 17.5326 18.1577 17.8452 17.8452C18.1578 17.5326 18.3334 17.1087 18.3334 16.6667Z" stroke="white" stroke-width="2" stroke-linecap="round" stroke-linejoin="round"/>
</g>
<defs>
<clipPath id="clip0_9_41">
<path d="M1.52588e-05 10C1.52588e-05 4.47715 4.47717 0 10 0V0C15.5229 0 20 4.47715 20 10V20H1.52588e-05V10Z" fill="white"/>
</clipPath>
</defs>
</svg>
