<svg width="24" height="24" viewBox="0 0 24 24" fill="none" xmlns="http://www.w3.org/2000/svg">
<path d="M22.5 21.4395L18.9833 17.9235C19.9231 16.7139 20.3665 15.1915 20.2233 13.6664C20.08 12.1412 19.3609 10.728 18.2122 9.71457C17.0636 8.70109 15.5718 8.16353 14.0407 8.21134C12.5096 8.25915 11.0543 8.88875 9.97117 9.97192C8.888 11.0551 8.25841 12.5104 8.21059 14.0415C8.16278 15.5726 8.70034 17.0643 9.71382 18.213C10.7273 19.3616 12.1405 20.0808 13.6656 20.224C15.1907 20.3673 16.7131 19.9238 17.9227 18.984L21.4395 22.5L22.5 21.4395ZM14.25 18.75C13.36 18.75 12.49 18.4861 11.7499 17.9916C11.0099 17.4971 10.4331 16.7943 10.0925 15.9721C9.75195 15.1498 9.66283 14.245 9.83647 13.3721C10.0101 12.4992 10.4387 11.6974 11.068 11.068C11.6974 10.4387 12.4992 10.0101 13.3721 9.83647C14.245 9.66283 15.1498 9.75195 15.9721 10.0925C16.7943 10.4331 17.4971 11.0099 17.9916 11.7499C18.4861 12.49 18.75 13.36 18.75 14.25C18.7486 15.443 18.2741 16.5868 17.4304 17.4304C16.5868 18.2741 15.443 18.7486 14.25 18.75V18.75ZM1.5 9H7.5V10.5H1.5V9ZM1.5 1.5H13.5V3H1.5V1.5ZM1.5 5.25H13.5V6.75H1.5V5.25Z" fill="black"/>
</svg>
