<svg width="360" height="406" viewBox="0 0 360 406" fill="none" xmlns="http://www.w3.org/2000/svg">
<path d="M288.359 496.23C405.262 496.23 500.03 401.462 500.03 284.559C500.03 167.656 405.262 72.8875 288.359 72.8875C171.456 72.8875 76.6875 167.656 76.6875 284.559C76.6875 401.462 171.456 496.23 288.359 496.23Z" fill="white"/>
<path d="M119.914 189.716C119.528 189.716 119.171 189.418 119.111 189.032C119.022 188.377 109.71 122.302 127.857 91.3325C128.095 90.9457 128.571 90.8267 128.958 91.035C129.345 91.273 129.464 91.749 129.256 92.1358C111.406 122.63 120.628 188.139 120.718 188.794C120.777 189.24 120.48 189.627 120.033 189.716C119.974 189.716 119.944 189.716 119.914 189.716Z" fill="#B56A4D"/>
<path d="M122.473 175.228C122.473 175.228 108.044 268.613 109.234 269.119C110.424 269.624 210.384 269.773 212.11 269.208C213.835 268.643 198.276 174.097 198.276 174.097L122.473 175.228Z" fill="#41395E"/>
<path d="M91.9791 148.691C91.8601 148.691 91.7708 148.661 91.6518 148.631C91.2353 148.453 91.0568 147.977 91.2353 147.56C92.0683 145.656 112.179 100.734 132.796 91.1838C133.183 91.0053 133.689 91.1838 133.867 91.5705C134.046 91.9573 133.867 92.463 133.48 92.6415C113.399 101.924 92.9311 147.739 92.7228 148.215C92.6038 148.512 92.3063 148.691 91.9791 148.691Z" fill="#32608E"/>
<path d="M142.554 79.3433C142.554 79.3433 133.629 74.9105 131.844 77.7368C130.059 80.563 131.844 83.9545 131.844 83.9545C131.844 83.9545 127.203 78.183 123.633 81.515C120.063 84.847 125.061 91.987 125.061 91.987C125.061 91.987 116.493 86.751 119.706 95.081C122.919 103.411 128.988 106.089 130.773 105.821C132.558 105.553 132.558 102.162 132.558 102.162C132.558 102.162 138.657 117.602 155.793 119.268C172.899 120.874 165.045 98.175 165.045 98.175L151.122 80.2655L142.554 79.3433Z" fill="#F79B77"/>
<path d="M173.673 96.8957C173.673 96.8957 163.974 85.68 161.118 81.515C158.262 77.35 152.193 73.1552 149.694 73.661C147.195 74.137 137.556 73.8692 137.913 77.7665C138.27 81.6637 147.552 83.9842 147.552 83.9842C147.552 83.9842 146.124 95.2 149.694 102.191C153.264 109.182 167.693 110.402 167.693 110.402L173.673 96.8957Z" fill="#F79B77"/>
<path d="M158.321 109.093C158.262 109.093 158.202 109.093 158.143 109.064C145.172 105.97 146.302 88.1493 146.689 84.4602C145.351 83.9842 142.227 82.824 140.948 82.1992C139.252 81.3365 138.032 79.8787 138.002 79.8192C137.735 79.4622 137.764 78.9862 138.121 78.6887C138.478 78.421 138.954 78.4507 139.252 78.8077C139.252 78.8077 140.293 80.0572 141.691 80.7712C143.209 81.5447 147.79 83.1513 147.85 83.181C148.207 83.3 148.444 83.6867 148.385 84.0438C148.355 84.252 145.559 104.423 158.559 107.517C159.006 107.606 159.273 108.052 159.154 108.469C159.006 108.855 158.678 109.093 158.321 109.093Z" fill="black"/>
<path d="M140.799 98.0262C139.758 98.0262 138.657 97.699 137.497 97.0147C132.32 94.01 130.892 84.8768 130.833 84.49C130.773 84.0438 131.071 83.657 131.517 83.5678C131.993 83.5083 132.35 83.8058 132.439 84.252C132.439 84.3413 133.808 92.9985 138.33 95.6165C139.639 96.3602 140.799 96.5685 141.81 96.2412C143.387 95.7057 144.131 94.01 144.131 93.9802C144.309 93.5637 144.785 93.3852 145.172 93.5637C145.589 93.7422 145.767 94.2182 145.589 94.605C145.559 94.6942 144.577 96.985 142.316 97.7585C141.81 97.937 141.305 98.0262 140.799 98.0262Z" fill="black"/>
<path d="M133.094 102.251C128.601 102.251 123.276 91.7192 122.235 89.5772C122.027 89.1905 122.205 88.6847 122.592 88.5062C122.979 88.298 123.484 88.4765 123.663 88.8632C125.954 93.5935 130.654 101.061 133.242 100.644C136.723 100.198 137.05 96.4495 137.05 96.3007C137.08 95.8545 137.467 95.557 137.913 95.557C138.359 95.5867 138.687 95.9735 138.657 96.4197C138.538 98.2047 137.288 101.745 133.451 102.251C133.332 102.221 133.213 102.251 133.094 102.251Z" fill="black"/>
<path d="M340.897 306.901C340.897 306.901 353.601 284.232 356.784 282.417C359.967 280.602 392.632 297.381 394.447 301.457C396.262 305.533 405.217 384.578 382.666 392.641C368.862 397.579 362.704 359.975 362.704 359.975L340.897 306.901Z" fill="#604D51"/>
<path d="M272.502 87.9112C272.502 87.9112 266.017 69.1985 276.816 59.8868C288.746 49.5933 302.103 57.0307 302.103 57.0307C302.103 57.0307 319.328 58.072 321.5 75.2972C323.672 92.5225 311.832 103.232 311.832 103.232L272.502 87.9112Z" fill="black"/>
<path d="M275.656 243.028C275.656 243.028 259.323 376.605 314.628 394.901C369.933 413.198 382.071 314.755 382.071 314.755C382.071 314.755 374.574 307.437 364.221 302.32C353.868 297.203 353.868 297.203 353.868 297.203L344.586 293.543L339.975 247.55L287.526 237.554L275.656 243.028Z" fill="#867EA3"/>
<path d="M240.045 237.554C240.045 237.554 227.907 265.876 227.193 337.038C226.479 408.2 252.748 492.005 255.247 492.69C257.746 493.374 325.695 493.344 328.908 491.946C332.121 490.577 303.888 379.699 301.954 344.118C300.021 308.537 293.446 241.005 293.446 241.005L240.045 237.554Z" fill="#867EA3"/>
<path d="M273.633 93.1472C273.633 93.1472 262.179 95.1107 256.645 110.997C251.112 126.884 263.904 135.392 263.904 135.392H332.3C332.3 135.392 341.046 108.587 320.072 94.5455C299.069 80.5035 273.633 93.1472 273.633 93.1472Z" fill="black"/>
<path d="M275.656 121.975C275.656 121.975 264.232 121.886 255.217 123.552C246.203 125.218 242.99 128.252 226.211 124.95C209.432 121.648 174.119 90.2318 174.119 90.2318L149.486 123.433C149.486 123.433 167.693 158.062 190.898 169.129C214.103 180.196 233.738 180.91 233.738 180.91C233.738 180.91 221.957 248.353 226.598 250.138C231.239 251.923 265.927 232.704 265.927 232.704L275.656 121.975Z" fill="#AD4444"/>
<path d="M112.626 175.228C112.626 175.228 98.1968 268.613 99.3868 269.119C100.577 269.624 200.537 269.773 202.262 269.208C203.988 268.643 188.429 174.097 188.429 174.097L112.626 175.228Z" fill="#867EA3"/>
<path d="M99.833 138.278C99.833 138.278 46.1045 231.277 47.0268 232.258C47.949 233.24 143.476 269.565 145.38 269.594C147.284 269.654 172.84 164.547 172.84 164.547L99.833 138.278Z" fill="#8C8C8C"/>
<path d="M90.194 134.589C90.194 134.589 36.4655 227.587 37.3878 228.569C38.31 229.551 133.837 265.876 135.741 265.905C137.645 265.965 163.201 160.858 163.201 160.858L90.194 134.589Z" fill="white"/>
<path d="M275.992 126.172C275.992 126.172 254.81 153.72 252.935 165.888C251.061 178.056 255.732 188.766 255.732 188.766C255.732 188.766 246.271 242.137 247.045 243.149C247.818 244.16 279.532 253.531 301.755 247.79C323.978 242.048 321.301 206.021 321.301 206.021L300.982 124L275.992 126.172Z" fill="white"/>
<path d="M300.497 115.727L300.14 129.502C300.14 129.502 294.815 133.756 288.151 133.637C279.166 133.488 275.507 125.753 275.507 125.753L276.846 110.313L300.497 115.727Z" fill="#F79B77"/>
<path d="M300.497 115.37C300.497 115.37 296.362 126.616 286.217 124.742C278.036 123.224 276.846 111.473 276.846 111.473L300.497 115.37Z" fill="black"/>
<path d="M274.019 75.1485C274.019 75.1485 268.426 99.6328 276.013 111.711C283.599 123.79 294.16 120.696 298.95 117.245C305.406 112.634 306.953 105.94 306.953 105.94C306.953 105.94 315.55 107.963 318.674 101.001C321.976 93.6827 316.77 87.5245 312.456 87.0187C308.143 86.513 307.607 87.2865 307.607 87.2865L309.154 79.4027C309.154 79.4325 283.837 49.266 274.019 75.1485Z" fill="#F79B77"/>
<path d="M277.797 86.87C277.797 86.87 264.856 80.801 263.488 90.9458C261.911 102.667 275.953 103.262 275.953 103.262L277.797 86.87Z" fill="#F79B77"/>
<path d="M310.969 86.7212C310.969 86.7212 305.078 89.9045 295.648 82.5265C286.217 75.1187 285.86 69.1687 285.86 69.1687C285.86 69.1687 275.834 74.7022 272.502 84.9362C269.17 95.1702 272.71 60.928 287.675 62.118C302.639 63.308 322.393 71.9652 310.969 86.7212Z" fill="black"/>
<path d="M270.925 97.2528C270.628 97.2528 270.36 97.104 270.211 96.8363L266.076 89.1905C265.868 88.8037 266.016 88.3278 266.403 88.1195C266.79 87.9113 267.266 88.06 267.474 88.4467L271.61 96.0925C271.818 96.4793 271.669 96.9553 271.282 97.1635C271.193 97.223 271.044 97.2528 270.925 97.2528Z" fill="black"/>
<path d="M308.678 98.8295C308.44 98.8295 308.202 98.7403 308.053 98.532C307.786 98.175 307.845 97.6693 308.172 97.4015L315.044 91.8977C315.401 91.63 315.907 91.6895 316.175 92.0167C316.443 92.3737 316.383 92.8795 316.056 93.1473L309.184 98.651C309.005 98.77 308.827 98.8295 308.678 98.8295Z" fill="black"/>
<path d="M314.807 100.079C314.628 100.079 314.449 100.02 314.301 99.9005L310.463 96.8065C310.106 96.5387 310.076 96.033 310.344 95.676C310.612 95.3487 311.118 95.2892 311.475 95.557L315.312 98.651C315.669 98.9188 315.699 99.4245 315.431 99.7815C315.253 99.9898 315.045 100.079 314.807 100.079Z" fill="black"/>
<path d="M269.646 94.9025L265.897 94.843C265.451 94.843 265.094 94.4563 265.094 94.0398C265.094 93.5935 265.451 93.2365 265.897 93.2365L269.676 93.296C270.122 93.296 270.479 93.6828 270.449 94.0993C270.449 94.5455 270.092 94.9025 269.646 94.9025Z" fill="black"/>
<path d="M286.038 101.805C285.652 101.805 285.295 101.507 285.235 101.091C284.343 94.3075 286.842 89.012 286.931 88.8038C287.109 88.417 287.615 88.2385 288.002 88.417C288.389 88.5955 288.567 89.1013 288.389 89.488C288.359 89.5475 286.009 94.605 286.812 100.882C286.871 101.329 286.544 101.715 286.128 101.775C286.098 101.805 286.068 101.805 286.038 101.805Z" fill="black"/>
<path d="M278.274 81.8125C278.036 81.8125 277.798 81.6935 277.619 81.4853C277.351 81.1283 277.411 80.6225 277.768 80.3548C279.702 78.8672 282.766 79.1052 282.885 79.1052C283.331 79.135 283.658 79.5217 283.629 79.968C283.599 80.4143 283.212 80.7713 282.766 80.7118C282.736 80.7118 280.207 80.5333 278.75 81.634C278.631 81.753 278.452 81.8125 278.274 81.8125Z" fill="black"/>
<path d="M298.355 83.419C298.176 83.419 297.998 83.3595 297.849 83.2405C296.451 82.0802 293.892 82.1993 293.863 82.1695C293.387 82.1695 293.03 81.8423 293.03 81.396C293 80.9498 293.357 80.563 293.803 80.563C293.922 80.563 296.986 80.444 298.861 81.991C299.218 82.2588 299.247 82.7645 298.98 83.1215C298.831 83.3297 298.593 83.419 298.355 83.419Z" fill="black"/>
<path d="M283.51 88.7145C283.242 88.7145 283.004 88.5955 282.855 88.3575C281.516 86.4238 278.155 88.4468 278.125 88.4765C277.738 88.7145 277.262 88.5955 277.024 88.2088C276.786 87.822 276.905 87.346 277.292 87.108C278.898 86.0965 282.409 84.8768 284.194 87.4353C284.432 87.7923 284.343 88.298 283.986 88.5658C283.807 88.6848 283.658 88.7145 283.51 88.7145Z" fill="black"/>
<path d="M299.396 91.035C299.188 91.035 298.979 90.9457 298.831 90.797C296.213 88.1195 293.565 89.845 293.446 89.9342C293.089 90.1722 292.583 90.083 292.345 89.726C292.107 89.369 292.197 88.8632 292.554 88.6252C293.863 87.703 297.135 86.751 299.991 89.6962C300.288 90.0235 300.288 90.5292 299.991 90.8267C299.812 90.9457 299.604 91.035 299.396 91.035Z" fill="black"/>
<path d="M290.59 110.224C288.775 110.224 286.098 108.409 285.235 107.784C284.997 107.606 284.878 107.338 284.908 107.07C284.938 106.773 285.116 106.535 285.384 106.416C292.524 103.173 293.387 103.619 293.744 103.798C293.952 103.917 294.19 104.214 294.249 104.452C294.487 105.642 293.268 109.48 291.274 110.134C291.036 110.194 290.828 110.224 290.59 110.224ZM287.347 107.249C288.746 108.082 290.203 108.766 290.739 108.587C291.572 108.29 292.375 106.356 292.583 105.285C291.542 105.553 289.43 106.356 287.347 107.249Z" fill="black"/>
<path d="M300.497 123.611C313.289 123.433 313.289 123.254 326.945 126.616C339.975 129.829 363.716 122.778 372.284 118.197C380.852 113.585 399.773 96.1817 399.773 96.1817C399.773 96.1817 421.728 122.54 421.728 124.147C421.728 125.753 416.73 148.423 390.491 164.488C364.965 180.107 343.396 180.91 343.396 180.91C343.396 180.91 345.36 254.422 344.11 255.315C342.861 256.207 314.836 259.242 309.838 259.063C304.84 258.885 295.38 255.85 295.618 253.53C295.856 251.209 300.497 123.611 300.497 123.611Z" fill="#AD4444"/>
<path d="M312.218 395.021C312.159 395.021 312.069 395.021 312.01 394.991C264.648 382.555 268.248 292.056 268.783 282.447L243.942 277.24C243.496 277.151 243.228 276.735 243.317 276.288C243.407 275.872 243.823 275.574 244.269 275.664L269.765 281.019C270.152 281.108 270.419 281.465 270.39 281.852C270.33 282.833 264.708 380.919 312.397 393.444C312.813 393.563 313.081 394.009 312.962 394.426C312.902 394.783 312.575 395.021 312.218 395.021Z" fill="#3E232C"/>
<path d="M178.7 183.766C178.224 183.766 177.897 183.379 177.897 182.933C177.897 182.427 178.849 132.388 146.392 96.7173C146.094 96.39 146.124 95.8843 146.451 95.5868C146.779 95.2893 147.284 95.319 147.582 95.6463C180.485 131.793 179.533 182.457 179.503 182.963C179.503 183.409 179.147 183.766 178.7 183.766Z" fill="#B56A4D"/>
<path d="M148.474 169.575C147.909 169.486 147.612 169.069 147.671 168.653C157.548 108.974 142.435 88.1195 142.286 87.9112C142.019 87.5542 142.078 87.0485 142.435 86.7807C142.792 86.513 143.298 86.5725 143.566 86.9295C144.22 87.7625 159.274 108.409 149.278 168.891C149.188 169.278 148.861 169.575 148.474 169.575Z" fill="#32608E"/>
<path d="M211.574 139.081C211.485 139.081 211.366 139.081 211.277 139.051C210.265 138.932 209.759 138.337 209.521 137.861C207.855 134.44 214.43 123.671 215.769 121.529C215.947 121.231 216.334 121.082 216.691 121.201C217.048 121.291 217.286 121.618 217.256 121.975C217.227 123.314 216.959 135.243 213.508 138.278C212.943 138.813 212.258 139.081 211.574 139.081ZM215.501 125.158C212.794 129.888 210.206 135.6 210.979 137.207C211.039 137.326 211.128 137.445 211.455 137.504C211.812 137.564 212.139 137.415 212.467 137.147C214.341 135.422 215.174 129.412 215.501 125.158Z" fill="#B56A4D"/>
<path d="M287.823 134.44C279.553 134.44 275.001 126.497 274.793 126.17C274.585 125.783 274.704 125.307 275.09 125.069C275.477 124.861 275.953 124.98 276.191 125.366C276.221 125.456 280.505 132.834 287.823 132.834C287.913 132.834 288.002 132.834 288.091 132.834C295.767 132.626 299.485 128.966 299.545 128.937C299.872 128.609 300.378 128.609 300.675 128.937C301.003 129.264 301.003 129.77 300.675 130.067C300.497 130.246 296.451 134.232 288.151 134.44C288.032 134.44 287.942 134.44 287.823 134.44Z" fill="#B56A4D"/>
<path d="M332.686 239.725C314.301 239.725 312.099 219.109 312.07 218.871C312.04 218.425 312.337 218.038 312.784 217.978C313.26 217.919 313.617 218.246 313.676 218.692C313.765 219.496 315.759 238.089 332.686 238.089C333.133 238.089 333.579 238.089 334.025 238.059C334.442 238.059 334.858 238.387 334.858 238.833C334.888 239.279 334.531 239.666 334.085 239.666C333.638 239.725 333.162 239.725 332.686 239.725Z" fill="#B56A4D"/>
<path d="M346.282 326.953C345.866 326.953 345.509 326.625 345.479 326.179L343.813 293.573C343.783 293.127 344.14 292.74 344.586 292.74C345.033 292.77 345.419 293.067 345.419 293.514L347.085 326.12C347.115 326.566 346.758 326.953 346.312 326.953H346.282Z" fill="#3E232C"/>
<path d="M353.154 319.694C352.976 319.694 352.768 319.664 352.559 319.634C345.895 318.652 344.676 305.235 344.646 304.64C344.616 304.283 344.824 303.956 345.122 303.837C345.449 303.688 345.806 303.777 346.044 304.045C349.168 307.615 356.278 316.153 354.85 318.801C354.612 319.218 354.136 319.694 353.154 319.694ZM346.609 307.169C347.353 311.393 349.198 317.522 352.797 318.028C353.303 318.087 353.452 317.998 353.452 317.998C353.958 317.135 350.864 312.316 346.609 307.169Z" fill="#3E232C"/>
</svg>
