<svg width="346" height="365" viewBox="0 0 346 365" fill="none" xmlns="http://www.w3.org/2000/svg">
<g clip-path="url(#clip0_4_165)">
<path d="M56.2609 123.935C56.2034 123.935 56.1461 123.927 56.091 123.912C55.9418 123.868 55.8168 123.769 55.7432 123.638C55.6697 123.506 55.6535 123.352 55.6983 123.209C56.2418 121.508 69.1243 81.4876 84.9373 74.2986C85.078 74.2349 85.2393 74.2272 85.386 74.2769C85.5327 74.3267 85.6528 74.43 85.7201 74.5642C85.7537 74.6307 85.7732 74.7029 85.7774 74.7767C85.7816 74.8505 85.7705 74.9243 85.7447 74.9939C85.7189 75.0636 85.6788 75.1276 85.6269 75.1823C85.5751 75.2371 85.5123 75.2814 85.4424 75.3128C70.0939 82.2912 56.9528 123.124 56.8236 123.536C56.787 123.652 56.7126 123.753 56.6112 123.825C56.5099 123.896 56.387 123.935 56.2609 123.935Z" fill="#662D91"/>
<path d="M59.0117 119.337C59.0117 119.337 39.7394 182.454 40.4624 182.896C41.1854 183.338 106.106 191.058 107.291 190.811C108.476 190.564 108.397 124.356 108.397 124.356L59.0117 119.337Z" fill="#645D7F"/>
<path d="M50.575 61.2142C50.575 61.2142 48.6597 53.2925 45.8563 50.9458C43.0528 48.5991 32.6601 43.6469 30.9842 45.7876C29.3084 47.9283 35.2744 53.6817 35.2744 53.6817C35.2744 53.6817 29.2102 52.7133 19.9714 53.8283C10.7327 54.9433 10.7327 57.3472 10.7327 57.3472C10.7327 57.3472 4.29259 57.306 3.45226 59.8657C2.61194 62.4253 8.2117 65.1109 8.2117 65.1109C8.2117 65.1109 -3.2799 66.9837 0.931296 70.466C5.14249 73.9483 17.6468 76.7095 27.5319 77.1605C37.4171 77.6115 40.9699 77.1605 40.9699 77.1605L50.575 61.2142Z" fill="#F79B77"/>
<path d="M18.0418 68.4123C17.9212 68.412 17.8036 68.3763 17.7049 68.3101C17.6062 68.2438 17.5312 68.1501 17.49 68.0418C17.4487 67.9334 17.4432 67.8156 17.4743 67.7041C17.5053 67.5927 17.5714 67.4931 17.6635 67.4187L30.5916 57.0038C30.7115 56.9126 30.864 56.8697 31.0165 56.8842C31.169 56.8987 31.3096 56.9695 31.4084 57.0816C31.5072 57.1937 31.5564 57.3381 31.5456 57.4844C31.5348 57.6306 31.4648 57.767 31.3505 57.8646L18.4225 68.2795C18.3163 68.366 18.1812 68.4131 18.0418 68.4123Z" fill="black"/>
<path d="M45.3248 65.9099C44.7789 65.8435 33.8763 64.3324 33.8763 57.4388C33.8711 57.3619 33.8825 57.2849 33.9097 57.2125C33.937 57.14 33.9794 57.0737 34.0345 57.0175C34.0896 56.9614 34.1561 56.9166 34.23 56.886C34.3039 56.8554 34.3835 56.8397 34.464 56.8397C34.5445 56.8397 34.6242 56.8554 34.698 56.886C34.7719 56.9166 34.8384 56.9614 34.8935 57.0175C34.9486 57.0737 34.9911 57.14 35.0183 57.2125C35.0455 57.2849 35.0569 57.3619 35.0518 57.4388C35.0518 63.3571 45.3008 64.7812 45.4038 64.7949C45.5493 64.8167 45.681 64.8898 45.7729 64.9998C45.8649 65.1098 45.9104 65.2488 45.9005 65.3893C45.8905 65.5298 45.8259 65.6617 45.7194 65.7589C45.6128 65.8561 45.472 65.9116 45.3248 65.9145V65.9099Z" fill="black"/>
<path d="M309.61 268.466L283.987 288.954L293.038 299.306L318.661 278.818L309.61 268.466Z" fill="#F48462"/>
<path d="M52.8446 118.683C52.8446 118.683 33.5722 181.797 34.2952 182.241C35.0182 182.685 99.9338 190.403 101.131 190.154C102.328 189.904 102.237 123.701 102.237 123.701L52.8446 118.683Z" fill="#A7A0C1"/>
<path d="M270.093 139.57C270.093 139.57 267.998 179.979 286.035 212.52C304.072 245.06 320.271 262.689 320.271 262.689L276.617 296.862C276.617 296.862 230.363 265.675 221.216 214.42C212.068 163.165 225.144 135.927 225.144 135.927L270.093 139.57Z" fill="#4373AE"/>
<path d="M125.12 53.7412C125.12 53.7412 121.725 42.8043 126.556 36.7166C131.648 30.306 139.932 29.9008 139.889 24.6029C139.79 12.2969 149.118 6.61206 149.118 6.61206L149.51 55.076L125.12 53.7412Z" fill="#3E232C"/>
<path d="M149.352 1.84988C149.352 1.84988 159.762 -3.67467 169.853 4.36832C179.944 12.4113 171.677 21.8898 179.19 26.4963C186.703 31.1027 193.827 36.3892 192.724 44.1253C191.62 51.8615 195.218 61.379 202.08 57.6723C212.528 52.0287 220.754 68.7076 216.559 78.0854C212.365 87.4631 134.847 65.413 134.847 65.413C134.847 65.413 124.456 48.061 129.903 40.089C135.349 32.117 149.379 16.276 149.352 1.84988Z" fill="#3E232C"/>
<path d="M145.946 44.9107C145.946 44.9107 130.324 45.6914 120.25 52.2371C110.176 58.7827 89.1891 72.2701 85.1886 74.8023C81.564 77.0918 57.7142 56.9054 53.2851 53.1094C53.2012 53.0354 53.1006 52.9809 52.9911 52.9501C52.8817 52.9192 52.7662 52.9128 52.6538 52.9314C52.5413 52.95 52.4349 52.9931 52.3426 53.0573C52.2503 53.1215 52.1747 53.2051 52.1216 53.3017C49.2918 58.2516 34.312 84.5624 34.4652 86.5978C34.6352 88.8415 64.5899 117.584 87.3433 117.007C110.097 116.43 122.96 100.252 122.96 100.252L145.946 44.9107Z" fill="#AD4444"/>
<path d="M123.748 288.249H94.1282V301.744H123.748V288.249Z" fill="#F79B77"/>
<path d="M117.65 117.011C117.65 117.011 99.0767 152.347 88.83 201.819C78.5834 251.29 81.8202 288.801 82.8999 290.976C83.9796 293.151 134.231 295.443 136.219 293.813C138.206 292.183 153.973 127.98 153.973 127.98L122.254 117.011H117.65Z" fill="white"/>
<path d="M86.1176 321.903C86.1176 321.903 86.3785 298.064 87.9466 297.597C89.5148 297.13 132.113 297.139 133.674 297.597C135.235 298.055 132.807 350.883 131.15 351.817C129.494 352.751 45.3439 353.454 42.2077 352.518C39.0714 351.581 45.8658 337.327 53.6993 334.522C61.5327 331.718 67.2881 331.251 67.2881 331.251L86.1176 321.903Z" fill="#B56A4D"/>
<path d="M186.688 282.563L158.092 289.952L161.772 302.979L190.369 295.59L186.688 282.563Z" fill="#F79B77"/>
<path d="M131.387 128.603C131.387 128.603 126.135 174.851 130.576 222.108C135.017 269.366 144.1 290.976 147.519 292.606C150.937 294.236 200.746 282.59 202.41 281.502C204.074 280.415 182.072 225.586 181.471 212.431C180.871 199.275 178.879 121.538 178.879 121.538L131.387 128.603Z" fill="white"/>
<path d="M159.977 320.852C159.977 320.852 153.561 300.375 156.099 299.232C158.637 298.09 191.946 286.438 194.574 284.93C197.203 283.421 204.526 320.852 204.526 320.852C204.526 320.852 177.823 353.591 176.602 354.574C175.381 355.556 141.751 356.57 139.494 356.213C136.472 355.734 133.987 346.455 140.729 341.833C146.889 337.618 151.61 336.984 151.61 336.984L159.977 320.852Z" fill="#B56A4D"/>
<path d="M181.978 295.498L181.355 308.979L214.723 310.389L215.346 296.908L181.978 295.498Z" fill="#F48462"/>
<path d="M117.765 131.179C117.765 131.179 156.295 135.529 157.047 130.034C158.761 117.524 168.555 51.8272 168.555 51.8272L162.726 43.0127L144.081 45.1076C144.081 45.1076 135.146 46.0234 126.405 68.9297C117.664 91.8361 117.765 131.179 117.765 131.179Z" fill="white"/>
<path d="M174.641 10.9506C174.641 10.9506 173.478 21.061 180.978 23.8038C186.916 25.9743 192.259 26.842 194.998 34.7247C197.682 42.4403 192.556 47.3032 198.647 51.9898C204.737 56.6764 207.617 51.367 216.54 56.6581C228.321 63.6433 221.625 77.5199 215.314 77.971C209.003 78.422 181.617 58.437 181.617 58.437L164.902 16.9514L174.641 10.9506Z" fill="#3E232C"/>
<path d="M164.555 34.8827L164.22 47.7038C164.22 47.7038 161.706 51.3304 153.851 51.7517C147.997 52.0653 146.226 49.1508 146.226 49.1508L147.933 37.9712L162.166 35.3337L164.555 34.8827Z" fill="#F79B77"/>
<path d="M162.166 35.3268C162.092 35.7543 161.95 36.1683 161.744 36.554C158.579 42.8845 150.346 44.0681 146.966 44.2742L147.923 37.9643L162.166 35.3268Z" fill="black"/>
<path d="M145.711 8.68406C145.711 8.68406 138.258 24.5823 140.796 33.5754C143.334 42.5685 151.885 41.2361 157.023 39.5487C162.161 37.8613 164.557 34.885 164.557 34.885C164.557 34.885 169.317 36.4762 172.553 32.259C175.79 28.0417 173.873 23.1468 171.158 22.0043C168.443 20.8619 165.173 22.7141 165.173 22.7141L167.761 18.0984C167.761 18.0984 157.31 -5.57948 145.711 8.68406Z" fill="#F79B77"/>
<path d="M165.18 22.7209C165.18 22.7209 157.997 24.0946 153.013 16.466C148.029 8.83744 148.483 5.68711 148.483 5.68711L143.506 13.563C143.506 13.563 142.395 8.09336 144.682 4.60647C146.968 1.11957 149.343 1.84305 149.343 1.84305L165.173 5.62529L169.341 17.7596L165.18 22.7209Z" fill="#3E232C"/>
<path d="M149.348 33.4815C149.073 33.4855 148.799 33.4586 148.531 33.4014C148.456 33.3832 148.385 33.351 148.323 33.3066C148.261 33.2622 148.209 33.2064 148.17 33.1425C148.13 33.0786 148.104 33.0079 148.094 32.9345C148.083 32.861 148.088 32.7862 148.108 32.7145C148.126 32.6421 148.159 32.574 148.205 32.5141C148.251 32.4542 148.31 32.4039 148.377 32.366C148.444 32.3282 148.518 32.3037 148.595 32.2939C148.672 32.2842 148.751 32.2894 148.826 32.3093C148.931 32.3322 150.98 32.7557 152.958 30.5418C153.061 30.4353 153.204 30.3712 153.355 30.3627C153.507 30.3543 153.656 30.4022 153.772 30.4965C153.887 30.5907 153.96 30.7241 153.976 30.8686C153.991 31.0132 153.947 31.1578 153.853 31.2722C152.156 33.1587 150.36 33.4815 149.348 33.4815Z" fill="black"/>
<path d="M146.281 29.0308C146.155 29.0299 146.033 28.9909 145.932 28.9193C145.83 28.8477 145.756 28.7472 145.718 28.6324C144.617 25.1982 147.155 21.7044 147.267 21.5579C147.309 21.4914 147.365 21.4338 147.431 21.3889C147.497 21.3439 147.572 21.3125 147.651 21.2967C147.731 21.2808 147.813 21.2808 147.892 21.2966C147.972 21.3124 148.047 21.3438 148.113 21.3887C148.179 21.4336 148.235 21.4911 148.277 21.5576C148.319 21.6241 148.346 21.6981 148.356 21.775C148.367 21.852 148.36 21.9301 148.338 22.0047C148.315 22.0792 148.277 22.1484 148.225 22.2081C148.201 22.2378 145.91 25.3951 146.841 28.3027C146.864 28.3734 146.872 28.4476 146.865 28.5213C146.858 28.5949 146.835 28.6665 146.799 28.7318C146.763 28.7971 146.713 28.8549 146.653 28.9019C146.594 28.9489 146.525 28.9841 146.451 29.0056C146.396 29.0215 146.338 29.03 146.281 29.0308Z" fill="black"/>
<path d="M154.54 21.9745C154.43 21.9737 154.323 21.9438 154.229 21.888C154.136 21.8322 154.06 21.7528 154.011 21.6586C153.925 21.4484 153.791 21.2594 153.619 21.1052C153.447 20.9511 153.24 20.8359 153.015 20.768C152.094 20.523 151.019 21.2007 151.009 21.2075C150.879 21.2801 150.726 21.3025 150.579 21.2702C150.433 21.2378 150.305 21.153 150.221 21.0333C150.138 20.9136 150.106 20.768 150.131 20.6263C150.157 20.4845 150.238 20.3575 150.358 20.2711C150.418 20.2322 151.888 19.3073 153.319 19.6804C153.707 19.7888 154.065 19.9777 154.368 20.2338C154.67 20.4899 154.91 20.8068 155.07 21.1617C155.138 21.2961 155.148 21.4507 155.098 21.5921C155.047 21.7336 154.941 21.8504 154.801 21.9173C154.72 21.9538 154.631 21.9733 154.54 21.9745Z" fill="black"/>
<path d="M145.182 21.2259C145.059 21.2261 144.939 21.1893 144.84 21.1206C144.74 21.052 144.665 20.955 144.627 20.8435C144.447 20.349 143.994 19.5912 143.585 19.5339C143.312 19.4836 142.97 19.7743 142.596 20.2803C142.501 20.3895 142.367 20.4603 142.22 20.4787C142.073 20.497 141.924 20.4616 141.803 20.3794C141.682 20.2973 141.597 20.1744 141.567 20.0355C141.537 19.8966 141.562 19.7518 141.639 19.6301C142.307 18.728 143.027 18.3159 143.757 18.4213C145.038 18.5998 145.673 20.2918 145.74 20.4818C145.765 20.5514 145.775 20.625 145.77 20.6984C145.765 20.7718 145.745 20.8435 145.711 20.9094C145.677 20.9754 145.629 21.0342 145.572 21.0826C145.514 21.131 145.446 21.1681 145.373 21.1915C145.312 21.2143 145.247 21.2259 145.182 21.2259Z" fill="black"/>
<path d="M154.186 17.2994C154.109 17.2997 154.032 17.2852 153.961 17.2569C153.889 17.2286 153.824 17.187 153.77 17.1345C151.835 15.2892 150.719 16.0905 150.676 16.1249C150.556 16.2161 150.404 16.259 150.251 16.2445C150.099 16.23 149.958 16.1591 149.86 16.0471C149.761 15.935 149.712 15.7905 149.722 15.6443C149.733 15.4981 149.803 15.3617 149.917 15.264C149.999 15.1999 151.864 13.7209 154.6 16.3401C154.682 16.4188 154.737 16.5188 154.759 16.6275C154.782 16.7362 154.77 16.8487 154.726 16.9511C154.682 17.0535 154.607 17.1411 154.511 17.2031C154.415 17.265 154.302 17.2985 154.186 17.2994Z" fill="black"/>
<path d="M143.324 16.6904C143.21 16.6901 143.097 16.6578 143.002 16.5974C142.906 16.5371 142.831 16.4513 142.785 16.3507C142.74 16.25 142.726 16.1389 142.746 16.0309C142.765 15.9228 142.817 15.8226 142.896 15.7425C143.157 15.4792 144.55 14.1719 145.692 14.4352C146.053 14.5154 146.539 14.7764 146.786 15.5502C146.813 15.6221 146.825 15.6986 146.821 15.775C146.816 15.8514 146.795 15.9262 146.76 15.9947C146.724 16.0632 146.674 16.124 146.613 16.1734C146.552 16.2228 146.481 16.2597 146.404 16.282C146.328 16.3043 146.247 16.3114 146.167 16.3029C146.088 16.2945 146.011 16.2706 145.941 16.2327C145.872 16.1949 145.811 16.1439 145.763 16.0828C145.715 16.0218 145.68 15.9519 145.661 15.8776C145.625 15.7585 145.541 15.5571 145.421 15.5296C145.11 15.4518 144.275 15.9875 143.746 16.5141C143.691 16.5692 143.626 16.6132 143.554 16.6436C143.481 16.6739 143.403 16.6898 143.324 16.6904Z" fill="black"/>
<path d="M165.869 30.258C165.755 30.257 165.643 30.2243 165.547 30.1636C165.452 30.103 165.377 30.0171 165.331 29.9164C165.286 29.8158 165.272 29.7046 165.291 29.5966C165.311 29.4885 165.363 29.3882 165.441 29.3078L169.989 24.7288C170.096 24.6204 170.244 24.5571 170.4 24.5528C170.556 24.5486 170.707 24.6036 170.82 24.7059C170.934 24.8083 171 24.9494 171.004 25.0984C171.009 25.2474 170.951 25.392 170.844 25.5004L166.295 30.0794C166.241 30.1353 166.175 30.1799 166.102 30.2106C166.028 30.2413 165.949 30.2574 165.869 30.258Z" fill="black"/>
<path d="M170.672 29.0399C170.581 29.0399 167.447 28.5706 167.447 28.5706C167.295 28.5448 167.159 28.4629 167.07 28.3426C166.98 28.2223 166.944 28.0731 166.968 27.9272C166.995 27.7815 167.08 27.6514 167.205 27.5639C167.33 27.4765 167.485 27.4385 167.638 27.4579L170.772 27.9158C170.849 27.9267 170.922 27.9519 170.989 27.9901C171.055 28.0283 171.113 28.0786 171.158 28.1382C171.204 28.1978 171.237 28.2654 171.256 28.3373C171.274 28.4091 171.277 28.4838 171.265 28.5568C171.245 28.6925 171.173 28.8163 171.064 28.9052C170.954 28.9941 170.815 29.0419 170.672 29.0399Z" fill="black"/>
<path d="M144.703 137.578C144.703 137.578 164.179 44.526 164.205 43.7201L164.232 42.9165C164.232 42.9165 181.491 48.2007 187.478 55.7033C191.833 61.1592 185.084 136.509 183.023 137.896C180.962 139.284 144.703 137.578 144.703 137.578Z" fill="#AD4444"/>
<path d="M160.595 124.738C160.595 124.738 172.616 134.698 188.819 135.073C205.022 135.449 221.443 121.203 221.443 121.203L238.331 50.9458C238.331 50.9458 220.749 52.9766 207.984 68.3459C195.218 83.7153 192.386 91.511 192.386 91.511L160.595 124.738Z" fill="white"/>
<path d="M206.59 135.927C206.59 135.927 186.959 171.03 180.71 226.083C174.462 281.136 174.246 301.746 174.246 301.746H231.024C231.024 301.746 232.272 246.203 234.026 240.726C236.808 232.026 226.186 142.01 226.186 142.01L206.59 135.927Z" fill="#4373AE"/>
<path d="M202.307 124.271L200.631 141.353C200.631 141.353 213.816 146.569 235.946 146.569C258.077 146.569 271.858 142.571 271.858 142.571L277.714 55.7034C277.714 55.7034 265.365 49.8446 249.277 50.0621C235.87 50.2452 231.984 52.2829 231.984 52.2829L202.307 124.271Z" fill="white"/>
<path d="M121.943 137.905C121.943 137.905 126.582 117.552 134.267 87.1312C140.612 62.0292 146.956 44.2742 146.956 44.2742C146.956 44.2742 132.352 46.8362 128.622 48.2923C124.892 49.7484 111.904 81.4716 109.556 102.432C107.207 123.392 108.962 136.051 110.082 136.967C111.203 137.882 121.943 137.905 121.943 137.905Z" fill="#AD4444"/>
<path d="M223.014 204.841C222.883 204.841 222.757 204.799 222.653 204.723C222.55 204.647 222.477 204.54 222.444 204.42C220.201 196.212 220.117 172.836 220.117 169.226L206.973 165.931C206.822 165.893 206.693 165.8 206.614 165.671C206.535 165.542 206.513 165.389 206.552 165.244C206.57 165.172 206.604 165.104 206.65 165.045C206.696 164.985 206.755 164.935 206.822 164.898C206.889 164.86 206.963 164.836 207.04 164.827C207.117 164.818 207.195 164.823 207.27 164.843L220.852 168.246C220.978 168.277 221.089 168.348 221.168 168.446C221.248 168.545 221.29 168.666 221.29 168.791C221.29 169.056 221.237 195.559 223.581 204.133C223.62 204.278 223.598 204.431 223.52 204.56C223.441 204.688 223.313 204.782 223.162 204.82C223.114 204.834 223.064 204.84 223.014 204.841Z" fill="#BDC0C9"/>
<path d="M136.544 105.172C136.544 105.172 112.773 113.442 109.012 118.575C105.251 123.708 106.087 137.985 108.074 137.976H110.051C110.051 137.976 111.746 142.537 114.009 141.397C116.271 140.257 117.681 137.404 117.681 137.404C117.681 137.404 117.741 141.262 120.255 141.186C122.769 141.111 129.422 128.287 129.422 128.287C129.422 128.287 139.58 127.586 144.88 118.809C150.181 110.031 136.544 105.172 136.544 105.172Z" fill="#F79B77"/>
<path d="M202.228 131.073L201.06 130.918C201.06 130.918 202.496 121.025 203.528 114.477C205.623 101.109 208.209 86.8656 208.235 86.7214C208.246 86.6476 208.272 86.5767 208.313 86.513C208.354 86.4494 208.407 86.3944 208.471 86.3515C208.535 86.3086 208.607 86.2786 208.683 86.2635C208.76 86.2484 208.838 86.2483 208.915 86.2635C208.991 86.2759 209.064 86.3027 209.129 86.3421C209.195 86.3816 209.251 86.433 209.296 86.4934C209.34 86.5538 209.372 86.6221 209.388 86.6942C209.405 86.7663 209.407 86.8409 209.394 86.9137C209.37 87.0556 206.784 101.285 204.692 114.642C203.665 121.187 202.228 131.073 202.228 131.073Z" fill="#662D91"/>
<path d="M181.373 50.9458C181.373 50.9458 208.587 67.7461 207.974 101.115C207.361 134.485 142.582 132.459 140.178 131.872L137.784 131.289C137.784 131.289 131.581 101.656 133.07 100.55C134.559 99.4441 169.355 94.524 169.355 94.524L181.373 50.9458Z" fill="#AD4444"/>
<path d="M216.313 345.221C215.889 350.329 215.355 354.038 214.807 354.67C212.808 357.007 134.205 358.919 130.324 358.447C126.443 357.976 127.715 358.676 126.467 357.976C125.51 357.435 125.989 351.993 126.278 349.36C126.398 348.506 126.467 347.943 126.467 347.943C126.467 347.943 126.467 338.632 133.453 334.09C140.439 329.547 152.41 327.656 152.41 327.656C152.41 327.656 172.999 314.047 174.675 313.328C176.351 312.61 178.11 305.455 178.862 305.208C179.614 304.96 214.33 305.929 216.449 307.369C217.984 308.424 217.464 331.681 216.313 345.221Z" fill="#604D51"/>
<path d="M346 307.763C346.165 310.641 292.133 360.842 289.107 362.912C286.081 364.982 287.412 364.744 286.047 365.005C284.683 365.266 279.227 357.941 279.227 357.941C279.178 357.877 279.123 357.816 279.064 357.761C278.123 356.705 273.079 350.7 274.735 343.861C276.569 336.326 283.696 327.532 283.696 327.532C283.696 327.532 288.942 305.153 289.646 303.6C290.35 302.048 286.706 295.931 287.084 295.278C287.462 294.626 312.528 273.72 314.977 273.42C316.811 273.191 333.134 290.873 341.312 301.018C344.094 304.466 345.952 307.03 346 307.763Z" fill="#604D51"/>
<path d="M257.464 40.4897L257.168 53.3108C257.168 53.3108 254.666 56.9443 246.811 57.3861C240.96 57.7158 238.939 56.4108 238.939 56.4108L239.897 49.9384L240.854 43.624L255.07 40.9407L257.464 40.4897Z" fill="#F4AD9D"/>
<path d="M255.07 40.9407C255 41.3681 254.859 41.7822 254.654 42.1678C251.506 48.5074 243.275 49.7232 239.897 49.9315L240.854 43.6171L255.07 40.9407Z" fill="black"/>
<path d="M238.551 14.3437C238.551 14.3437 231.144 30.2625 233.71 39.2488C236.277 48.235 244.831 46.8774 249.954 45.1763C255.078 43.4752 257.464 40.492 257.464 40.492C257.464 40.492 262.229 42.0717 265.454 37.8453C268.678 33.6189 266.746 28.7286 264.017 27.593C261.288 26.4574 258.032 28.3187 258.032 28.3187L260.605 23.6963C260.605 23.6963 250.1 0.0549622 238.551 14.3437Z" fill="#F4AD9D"/>
<path d="M239.174 34.6881C239.048 34.6881 238.925 34.6497 238.824 34.5784C238.723 34.5072 238.648 34.4068 238.611 34.292C237.498 30.8578 240.028 27.3594 240.136 27.2129C240.176 27.1442 240.231 27.0843 240.297 27.0371C240.363 26.99 240.439 26.9567 240.52 26.9393C240.6 26.9218 240.683 26.9208 240.764 26.9361C240.845 26.9514 240.922 26.9828 240.989 27.0283C241.056 27.0737 241.113 27.1321 241.155 27.1998C241.198 27.2675 241.224 27.3429 241.234 27.4211C241.244 27.4994 241.237 27.5788 241.213 27.6541C241.188 27.7295 241.148 27.7991 241.094 27.8585C241.07 27.8906 238.788 31.0638 239.731 33.96C239.776 34.1024 239.761 34.256 239.688 34.3876C239.616 34.5192 239.492 34.6181 239.344 34.6629C239.289 34.6794 239.231 34.6879 239.174 34.6881Z" fill="black"/>
<path d="M258.762 35.8603C258.647 35.8606 258.535 35.8286 258.439 35.7682C258.342 35.7079 258.267 35.6219 258.222 35.5209C258.176 35.42 258.163 35.3085 258.183 35.2003C258.204 35.0921 258.257 34.992 258.336 34.9125L262.87 30.3174C262.923 30.2638 262.987 30.2206 263.057 30.1904C263.128 30.1602 263.204 30.1436 263.281 30.1415C263.358 30.1393 263.435 30.1518 263.507 30.178C263.579 30.2043 263.645 30.2439 263.701 30.2946C263.757 30.3452 263.802 30.406 263.834 30.4733C263.865 30.5406 263.883 30.6133 263.885 30.687C263.887 30.7608 263.874 30.8343 263.847 30.9033C263.819 30.9722 263.778 31.0353 263.725 31.089L259.191 35.684C259.135 35.7398 259.069 35.7842 258.995 35.8145C258.922 35.8448 258.842 35.8604 258.762 35.8603Z" fill="black"/>
<path d="M263.562 34.6263C263.476 34.6263 260.34 34.1684 260.34 34.1684C260.186 34.1458 260.047 34.0656 259.954 33.9454C259.862 33.8252 259.823 33.6749 259.847 33.5273C259.855 33.4534 259.88 33.382 259.919 33.3176C259.958 33.2532 260.011 33.1972 260.073 33.1532C260.136 33.1091 260.208 33.0779 260.284 33.0615C260.359 33.0451 260.438 33.0439 260.515 33.058L263.651 33.5159C263.8 33.5338 263.937 33.6061 264.032 33.7175C264.127 33.829 264.174 33.9713 264.162 34.1148C264.151 34.2584 264.082 34.3923 263.971 34.4887C263.859 34.5852 263.713 34.6369 263.562 34.6332V34.6263Z" fill="black"/>
<path d="M258.053 28.3186C258.053 28.3186 256.33 29.4016 255.078 27.5265C253.825 25.6514 256.567 20.1154 256.567 20.1154C256.567 20.1154 251.398 21.2395 248.202 19.6048C245.006 17.9701 243.438 13.4713 243.438 13.4713C243.438 13.4713 241.087 18.1556 234.031 16.095C226.976 14.0345 225.63 4.84906 233.162 2.97396C240.694 1.09887 244.812 4.28584 244.812 4.28584C244.812 4.28584 245.769 -2.37887 255.078 0.91113C263.565 3.91036 264.999 14.078 264.999 14.078C264.999 14.078 270.093 14.3069 271.075 19.6048C272.056 24.9027 265.568 28.7399 265.568 28.7399C265.568 28.7399 261.889 26.6748 258.053 28.3186Z" fill="black"/>
<path d="M244.45 39.5991C242.722 39.5991 241.326 38.2597 241.254 38.1887C241.184 38.1207 241.133 38.0367 241.106 37.9445C241.079 37.8523 241.077 37.7551 241.101 37.6622C241.125 37.5696 241.173 37.4843 241.241 37.4143C241.309 37.3443 241.394 37.2917 241.489 37.2615L248.015 35.1872C248.116 35.1552 248.225 35.1501 248.329 35.1726C248.433 35.1951 248.529 35.2442 248.606 35.3148C248.684 35.3854 248.739 35.4747 248.768 35.5732C248.796 35.6717 248.796 35.7757 248.767 35.8741C248.736 35.9702 248.022 38.2368 245.858 39.274C245.422 39.4867 244.94 39.5981 244.45 39.5991ZM242.908 37.9964C243.54 38.365 244.455 38.697 245.334 38.2734C246.061 37.9033 246.668 37.3489 247.088 36.6708L242.908 37.9964Z" fill="black"/>
<path d="M246.737 28.7331C246.654 28.731 246.572 28.7125 246.497 28.6789C246.422 28.6453 246.355 28.5972 246.3 28.5377C246.245 28.4782 246.204 28.4085 246.178 28.333C246.153 28.2575 246.144 28.1778 246.152 28.0989L246.55 25.1226C246.556 25.0481 246.578 24.9757 246.615 24.91C246.653 24.8443 246.704 24.7868 246.765 24.7411C246.827 24.6953 246.898 24.6625 246.974 24.6446C247.05 24.6267 247.129 24.6242 247.206 24.6372C247.283 24.646 247.357 24.6693 247.425 24.7058C247.492 24.7423 247.551 24.7913 247.599 24.8499C247.646 24.9085 247.681 24.9755 247.701 25.0471C247.721 25.1187 247.726 25.1934 247.716 25.2668L247.318 28.2432C247.3 28.3783 247.231 28.5025 247.124 28.5926C247.017 28.6827 246.879 28.7326 246.737 28.7331Z" fill="black"/>
<path d="M237.503 28.0234C237.419 28.0211 237.337 28.0021 237.261 27.9678C237.186 27.9335 237.118 27.8846 237.064 27.8241C237.009 27.7636 236.968 27.6928 236.943 27.6164C236.919 27.54 236.911 27.4595 236.921 27.38L237.376 24.4037C237.4 24.2566 237.483 24.1245 237.608 24.0355C237.733 23.9465 237.889 23.9077 238.044 23.9275C238.198 23.9495 238.337 24.0292 238.429 24.1489C238.522 24.2686 238.562 24.4187 238.539 24.5662L238.084 27.5426C238.064 27.6763 237.994 27.7985 237.887 27.8869C237.78 27.9752 237.644 28.0237 237.503 28.0234Z" fill="black"/>
<path d="M249.636 23.03C249.528 23.0304 249.421 23.0022 249.329 22.9485C249.236 22.8948 249.161 22.8176 249.111 22.7255C248.376 21.3518 246.389 21.7318 246.303 21.7524C246.152 21.7793 245.995 21.7494 245.866 21.6689C245.736 21.5883 245.644 21.4633 245.609 21.3197C245.576 21.1743 245.605 21.0224 245.69 20.8975C245.774 20.7725 245.907 20.6848 246.059 20.6535C246.179 20.6306 249.006 20.0697 250.158 22.2103C250.193 22.276 250.215 22.3477 250.221 22.4214C250.228 22.4951 250.219 22.5693 250.196 22.6397C250.172 22.7102 250.134 22.7754 250.084 22.8318C250.034 22.8882 249.973 22.9345 249.904 22.9682C249.821 23.0085 249.729 23.0296 249.636 23.03Z" fill="black"/>
<path d="M240.617 21.1916C240.523 21.1912 240.429 21.1687 240.346 21.126C240.263 21.0833 240.191 21.0217 240.138 20.9466C240.034 20.7767 239.891 20.6309 239.721 20.5193C239.551 20.4078 239.358 20.3332 239.155 20.3009C238.357 20.1933 237.455 20.8115 237.167 21.0519C237.05 21.1497 236.896 21.1987 236.74 21.1881C236.585 21.1776 236.44 21.1084 236.338 20.9958C236.236 20.8832 236.184 20.7363 236.195 20.5875C236.206 20.4388 236.279 20.3003 236.397 20.2025C236.456 20.1521 237.819 19.0142 239.301 19.1791C239.671 19.2266 240.026 19.3523 240.339 19.5471C240.653 19.742 240.917 20.001 241.113 20.3055C241.173 20.3894 241.209 20.4875 241.215 20.5893C241.222 20.691 241.199 20.7925 241.15 20.8829C241.101 20.9733 241.027 21.0491 240.936 21.1023C240.845 21.1555 240.741 21.184 240.634 21.1847L240.617 21.1916Z" fill="black"/>
<path d="M185.163 165.388C185.163 165.388 155.635 222.005 156.24 222.543C156.846 223.081 216.94 240.999 218.108 240.958C219.276 240.916 231.036 178.212 231.036 178.212L185.163 165.388Z" fill="#3E232C"/>
<path d="M232.841 180.563C232.841 180.563 245.958 242.574 246.782 242.643C247.606 242.711 306.517 221.501 307.412 220.783C308.308 220.064 277.247 163.703 277.247 163.703L232.841 180.563Z" fill="#99A3BC"/>
<path d="M226.581 182.859C226.581 182.859 239.7 244.87 240.524 244.939C241.347 245.008 300.259 223.8 301.154 223.079C302.049 222.358 270.989 166 270.989 166L226.581 182.859Z" fill="#BDC0C9"/>
<path d="M200.373 172.779C200.373 172.779 188.79 249.651 189.712 250.068C190.634 250.484 267.895 249.188 269.241 248.712C270.586 248.236 258.997 170.819 258.997 170.819L200.373 172.779Z" fill="#554F72"/>
<path d="M193.744 172.779C193.744 172.779 182.163 249.651 183.085 250.056C184.007 250.461 261.269 249.177 262.614 248.701C263.96 248.224 252.37 170.808 252.37 170.808L193.744 172.779Z" fill="white"/>
<path d="M87.3984 86.7099C87.0575 86.7139 86.7194 86.6512 86.4049 86.5256C86.0904 86.4 85.806 86.2142 85.5693 85.9796C83.0699 83.555 84.4513 75.6059 84.6117 74.7084C84.6314 74.5972 84.6855 74.4941 84.767 74.4125C84.8485 74.3309 84.9537 74.2745 85.0689 74.2505C85.1826 74.2291 85.3003 74.2393 85.408 74.2798C85.5158 74.3204 85.6092 74.3897 85.677 74.4795C86.2397 75.2762 91.1403 82.3553 89.7877 85.3454C89.5483 85.8468 89.0503 86.4901 87.9035 86.6573C87.737 86.6881 87.568 86.7057 87.3984 86.7099ZM85.543 76.3774C85.1791 79.2004 84.9421 83.7748 86.4 85.192C86.5677 85.3561 86.7766 85.4762 87.0068 85.5408C87.237 85.6053 87.4807 85.6121 87.7144 85.5606C88.3895 85.4553 88.605 85.1393 88.7079 84.9081C89.4884 83.1887 87.1614 78.9165 85.543 76.3774Z" fill="#3E232C"/>
<path d="M138.608 271.983C138.488 271.983 138.37 271.948 138.272 271.882C138.173 271.816 138.098 271.722 138.057 271.614C122.893 232.209 126.415 164.562 126.716 159.269L114.248 151.39C114.184 151.35 114.128 151.298 114.085 151.236C114.042 151.175 114.012 151.107 113.996 151.035C113.981 150.963 113.981 150.888 113.995 150.816C114.01 150.744 114.039 150.675 114.082 150.613C114.124 150.552 114.179 150.499 114.243 150.457C114.306 150.416 114.378 150.387 114.454 150.373C114.529 150.358 114.607 150.357 114.682 150.371C114.758 150.385 114.83 150.413 114.894 150.454L127.648 158.513C127.734 158.568 127.803 158.643 127.85 158.731C127.896 158.82 127.917 158.918 127.911 159.017C127.866 159.729 123.535 230.618 139.163 271.229C139.196 271.314 139.207 271.406 139.195 271.495C139.183 271.585 139.148 271.671 139.094 271.745C139.04 271.82 138.968 271.88 138.884 271.923C138.801 271.965 138.707 271.987 138.613 271.987L138.608 271.983Z" fill="#BDC0C9"/>
<path d="M173.004 154.983C162.23 154.213 158.498 143.109 158.464 142.999C158.441 142.929 158.433 142.855 158.44 142.782C158.447 142.708 158.469 142.637 158.505 142.572C158.541 142.506 158.589 142.448 158.649 142.401C158.708 142.354 158.776 142.318 158.85 142.297C158.923 142.275 159.001 142.267 159.077 142.273C159.154 142.28 159.229 142.301 159.297 142.335C159.365 142.369 159.426 142.416 159.475 142.473C159.525 142.529 159.562 142.595 159.585 142.665C159.618 142.768 163.116 153.149 173.047 153.861C173.202 153.866 173.349 153.931 173.455 154.04C173.561 154.149 173.617 154.294 173.612 154.442C173.606 154.591 173.539 154.732 173.425 154.833C173.311 154.934 173.159 154.988 173.004 154.983Z" fill="#BDC0C9"/>
<path d="M108.94 110.136C108.856 110.133 108.773 110.114 108.697 110.079C108.621 110.044 108.553 109.994 108.498 109.933C108.444 109.871 108.403 109.8 108.379 109.722C108.355 109.645 108.348 109.564 108.359 109.484C108.543 108.412 112.836 83.1544 114.6 77.8084C114.65 77.6699 114.755 77.5557 114.892 77.4899C115.029 77.4241 115.187 77.412 115.334 77.4561C115.48 77.5002 115.602 77.5971 115.675 77.7261C115.747 77.8552 115.765 78.0062 115.723 78.1472C113.982 83.4131 109.565 109.401 109.52 109.662C109.498 109.794 109.427 109.914 109.321 110.001C109.215 110.088 109.08 110.136 108.94 110.136Z" fill="#3E232C"/>
<path d="M154.179 52.1798C148.859 52.1798 145.96 49.6774 145.824 49.5583C145.719 49.4549 145.661 49.3173 145.659 49.1737C145.657 49.0301 145.713 48.8914 145.815 48.7859C145.917 48.6803 146.057 48.616 146.207 48.6059C146.356 48.5959 146.505 48.6409 146.621 48.7318C146.657 48.7616 150.095 51.683 156.221 50.9274C162.271 50.1811 163.671 47.4932 163.683 47.4611C163.751 47.3275 163.87 47.2244 164.016 47.1735C164.162 47.1226 164.322 47.1281 164.464 47.1887C164.604 47.2506 164.714 47.3629 164.768 47.5012C164.823 47.6396 164.819 47.793 164.756 47.9282C164.691 48.061 163.14 51.2068 156.377 52.0493C155.648 52.137 154.914 52.1806 154.179 52.1798Z" fill="#3E232C"/>
<path d="M146.963 132.676C146.808 132.682 146.656 132.629 146.541 132.528C146.427 132.427 146.359 132.287 146.353 132.138C146.346 131.989 146.402 131.844 146.508 131.735C146.613 131.625 146.76 131.56 146.915 131.554C147.1 131.538 165.402 130.084 170.377 129.295C170.453 129.282 170.531 129.285 170.606 129.301C170.682 129.318 170.753 129.348 170.815 129.391C170.878 129.434 170.932 129.488 170.972 129.551C171.013 129.613 171.041 129.683 171.054 129.756C171.066 129.829 171.064 129.903 171.047 129.975C171.029 130.047 170.997 130.115 170.952 130.175C170.908 130.235 170.851 130.286 170.786 130.325C170.72 130.364 170.647 130.39 170.571 130.403C165.544 131.202 147.763 132.617 147.006 132.674L146.963 132.676Z" fill="#3E232C"/>
<path d="M187.488 176.101C187.393 176.101 187.299 176.079 187.215 176.037C187.078 175.966 186.976 175.846 186.931 175.704C186.886 175.562 186.902 175.408 186.975 175.277C189.396 170.879 210.876 132.42 220.138 135.877C229.475 139.366 226.097 169.001 225.949 170.26C225.941 170.334 225.918 170.406 225.881 170.472C225.844 170.537 225.794 170.595 225.733 170.641C225.673 170.687 225.603 170.721 225.528 170.741C225.453 170.761 225.375 170.767 225.298 170.757C225.143 170.74 225.002 170.665 224.905 170.549C224.808 170.433 224.764 170.285 224.78 170.137C224.816 169.837 228.216 140.101 219.712 136.925C212.702 134.32 194.457 164.102 188.017 175.801C187.966 175.893 187.89 175.969 187.797 176.022C187.703 176.075 187.596 176.102 187.488 176.101Z" fill="black"/>
<path d="M171.797 88.6171C171.797 88.6171 190.698 92.2322 186.377 96.193C182.056 100.154 171.258 97.5667 171.258 97.5667L171.797 88.6171Z" fill="#F48462"/>
<path d="M162.549 88.5141C162.549 88.5141 164.045 78.0167 169.034 81.3571C174.023 84.6975 176.023 103.794 170.033 105.694C164.043 107.595 162.549 88.5141 162.549 88.5141Z" fill="#F48462"/>
<path d="M153.434 89.4687C153.434 89.4687 154.933 78.9691 159.922 82.3118C164.912 85.6545 166.908 104.749 160.921 106.649C154.933 108.549 153.434 89.4687 153.434 89.4687Z" fill="#F48462"/>
<path d="M144.919 92.7931C144.919 92.7931 144.569 83.4222 149.446 85.6155C154.323 87.8089 159.075 104.16 154.155 106.693C149.235 109.225 144.919 92.7931 144.919 92.7931Z" fill="#F48462"/>
<path d="M155.781 102.196C155.644 102.195 155.511 102.149 155.405 102.066C155.3 101.982 155.228 101.867 155.201 101.738L152.855 89.5741C152.841 89.501 152.843 89.426 152.859 89.3535C152.876 89.2809 152.907 89.2123 152.952 89.1514C152.996 89.0906 153.053 89.0387 153.119 88.9989C153.184 88.959 153.257 88.932 153.334 88.9193C153.41 88.9055 153.489 88.9065 153.565 88.9221C153.641 88.9378 153.712 88.9679 153.776 89.0105C153.84 89.0532 153.894 89.1077 153.935 89.1706C153.976 89.2336 154.004 89.3038 154.016 89.3772L156.365 101.539C156.379 101.612 156.378 101.687 156.361 101.76C156.345 101.832 156.313 101.901 156.269 101.962C156.224 102.023 156.167 102.075 156.102 102.115C156.036 102.154 155.963 102.181 155.886 102.194C155.851 102.198 155.816 102.199 155.781 102.196Z" fill="black"/>
<path d="M267.089 176.726C266.982 176.726 266.877 176.698 266.786 176.646C266.694 176.593 266.619 176.518 266.569 176.428C266.373 176.076 246.655 141.17 229.497 136.591C226.179 135.701 223.152 136.026 220.478 137.537C210.124 143.398 226.483 171.002 226.648 171.282C226.725 171.411 226.745 171.564 226.704 171.708C226.663 171.851 226.564 171.974 226.429 172.047C226.294 172.121 226.133 172.141 225.983 172.101C225.833 172.062 225.705 171.967 225.628 171.838C224.924 170.663 208.537 142.99 219.882 136.58C222.836 134.906 226.176 134.547 229.813 135.52C247.452 140.218 266.801 174.443 267.608 175.888C267.681 176.02 267.696 176.173 267.652 176.316C267.607 176.459 267.505 176.579 267.369 176.65C267.284 176.698 267.187 176.724 267.089 176.726Z" fill="#3E232C"/>
<path d="M164.612 98.874C164.467 98.8737 164.327 98.8222 164.218 98.7293C164.11 98.6364 164.042 98.5086 164.026 98.3703L162.776 86.8771C162.765 86.8021 162.77 86.7257 162.79 86.6525C162.81 86.5794 162.846 86.5108 162.895 86.4511C162.944 86.3914 163.004 86.3417 163.074 86.305C163.143 86.2683 163.219 86.2453 163.298 86.2375C163.377 86.2296 163.456 86.237 163.532 86.2593C163.608 86.2815 163.678 86.3182 163.739 86.367C163.799 86.4158 163.849 86.4758 163.885 86.5434C163.92 86.611 163.942 86.6847 163.947 86.7603L165.199 98.2536C165.214 98.4019 165.168 98.55 165.07 98.6658C164.971 98.7816 164.829 98.8556 164.675 98.8717L164.612 98.874Z" fill="black"/>
<path d="M97.0944 128.866C97.0149 128.865 96.9364 128.849 96.8634 128.819C96.7905 128.789 96.7247 128.745 96.6698 128.69C96.6149 128.635 96.5721 128.57 96.5439 128.499C96.5157 128.427 96.5026 128.352 96.5055 128.276C98.3034 94.7941 84.8391 75.3128 84.7027 75.1205C84.6257 74.997 84.6011 74.85 84.6339 74.7096C84.6667 74.5693 84.7544 74.4462 84.879 74.3657C85.0036 74.2852 85.1556 74.2533 85.304 74.2766C85.4524 74.2999 85.5859 74.3766 85.677 74.4909C85.8159 74.6855 99.5005 94.4507 97.6834 128.333C97.6754 128.477 97.6098 128.613 97.5002 128.712C97.3907 128.811 97.2454 128.867 97.0944 128.866Z" fill="#662D91"/>
<path d="M244.812 178.789C244.674 178.789 244.541 178.743 244.436 178.66C244.33 178.576 244.258 178.46 244.232 178.331C244.156 177.928 236.624 138.079 222.973 137.184C222.808 137.184 222.642 137.168 222.477 137.168C209.248 137.168 203.14 172.225 203.085 172.582C203.075 172.655 203.048 172.726 203.008 172.789C202.968 172.853 202.915 172.908 202.851 172.951C202.788 172.994 202.716 173.024 202.64 173.039C202.564 173.054 202.486 173.055 202.41 173.04C202.258 173.014 202.122 172.932 202.032 172.811C201.942 172.69 201.906 172.54 201.931 172.394C202.187 170.892 208.271 136.035 222.492 136.035C222.681 136.035 222.875 136.035 223.071 136.053C237.627 137.01 245.097 176.449 245.405 178.127C245.419 178.2 245.417 178.275 245.4 178.347C245.384 178.419 245.352 178.488 245.308 178.548C245.263 178.609 245.206 178.66 245.141 178.7C245.076 178.74 245.003 178.767 244.927 178.78C244.889 178.785 244.85 178.789 244.812 178.789Z" fill="#B56A4D"/>
<path d="M239.664 119.688C239.664 119.688 221.517 117.804 214.737 121.748C207.957 125.693 206.451 139.787 207.363 141.049C208.276 142.31 210.572 141.85 210.572 141.85C210.572 141.85 210.66 144.456 212.046 145.319C213.432 146.182 215.654 144.673 215.654 144.673C215.654 144.673 219.092 147.082 221.654 146.173C224.215 145.264 226.076 143.405 225.527 141.459C224.979 139.513 223.574 139.151 223.574 139.151L224.979 139.513C224.979 139.513 227.373 142.18 233.646 141.683C239.918 141.186 245.925 132.342 245.925 132.342L239.664 119.688Z" fill="#F4AD9D"/>
<path d="M277.714 55.7034C277.714 55.7034 318.652 80.3956 314.518 112.082C310.788 140.6 243.368 141.571 243.368 141.571L235.93 109.832L261.396 100.346L277.714 55.7034Z" fill="white"/>
<path d="M237.167 111.123C237.034 111.122 236.904 111.078 236.801 110.997C236.697 110.916 236.625 110.804 236.597 110.679C236.569 110.554 236.587 110.424 236.647 110.309C236.707 110.195 236.806 110.104 236.928 110.051C238.247 109.467 269.385 95.7351 286.562 95.5565C286.718 95.5565 286.868 95.6159 286.979 95.7215C287.089 95.8271 287.151 95.9704 287.151 96.1197C287.151 96.2691 287.089 96.4124 286.979 96.518C286.868 96.6236 286.718 96.6829 286.562 96.6829C269.638 96.8569 237.723 110.93 237.414 111.07C237.337 111.105 237.253 111.123 237.167 111.123Z" fill="#662D91"/>
<path d="M268.355 99.8768C268.209 99.8778 268.068 99.8263 267.96 99.7325C267.871 99.6545 267.808 99.5522 267.781 99.4392C267.754 99.3263 267.764 99.2081 267.809 99.1006C267.965 98.7366 271.661 90.1716 277.752 90.5402C278.815 90.6066 279.428 90.9432 279.567 91.5453C280.026 93.5326 272.916 97.5759 268.638 99.8058C268.551 99.8522 268.454 99.8766 268.355 99.8768ZM277.371 91.6346C273.754 91.6346 270.989 95.6344 269.698 97.933C274.561 95.268 278.401 92.5802 278.417 91.772C278.178 91.6961 277.928 91.6529 277.675 91.6438C277.575 91.6346 277.472 91.6346 277.371 91.6346Z" fill="#662D91"/>
<path d="M245.221 58.1119C242.346 58.0757 239.511 57.4577 236.904 56.2986C236.767 56.2304 236.663 56.1134 236.616 55.9728C236.568 55.8322 236.58 55.6794 236.649 55.5472C236.718 55.415 236.839 55.3141 236.985 55.2662C237.131 55.2183 237.291 55.2273 237.431 55.2913C237.481 55.3164 242.715 57.7891 248.082 56.713C255.549 55.2157 259.04 51.4472 259.076 51.3991C259.18 51.2948 259.322 51.2328 259.473 51.2259C259.624 51.219 259.772 51.2678 259.886 51.3621C260 51.4564 260.072 51.5891 260.087 51.7327C260.102 51.8764 260.059 52.02 259.966 52.134C259.815 52.2989 256.208 56.2322 248.324 57.8143C247.303 58.0148 246.263 58.1145 245.221 58.1119Z" fill="#662D91"/>
<path d="M288.65 276.316C288.529 276.316 288.411 276.28 288.312 276.214C288.213 276.147 288.138 276.053 288.097 275.944C288.056 275.836 288.051 275.717 288.082 275.606C288.114 275.494 288.181 275.395 288.274 275.321L313.864 255.024C313.984 254.93 314.139 254.884 314.294 254.898C314.448 254.913 314.591 254.985 314.69 255.1C314.789 255.215 314.837 255.362 314.822 255.51C314.807 255.659 314.731 255.795 314.611 255.89L289.023 276.186C288.919 276.27 288.786 276.316 288.65 276.316Z" fill="#BDC0C9"/>
<path d="M231.029 293.309H198.359C198.21 293.3 198.07 293.237 197.967 293.132C197.865 293.028 197.808 292.89 197.808 292.747C197.808 292.604 197.865 292.466 197.967 292.362C198.07 292.257 198.21 292.194 198.359 292.185H231.029C231.178 292.194 231.319 292.257 231.421 292.362C231.523 292.466 231.58 292.604 231.58 292.747C231.58 292.89 231.523 293.028 231.421 293.132C231.319 293.237 231.178 293.3 231.029 293.309Z" fill="#BDC0C9"/>
<path d="M216.313 345.221C215.889 350.329 215.355 354.038 214.807 354.67C212.808 357.007 134.205 358.919 130.324 358.447C126.443 357.976 127.715 358.676 126.467 357.976C125.51 357.435 125.989 351.993 126.278 349.36C136.7 349.429 176.315 349.473 193.641 347.854C205.034 346.796 212.216 345.853 216.313 345.221Z" fill="#DDAC8A"/>
<path d="M346 307.763C346.165 310.641 292.133 360.842 289.107 362.912C286.081 364.982 287.412 364.744 286.047 365.005C284.683 365.266 279.227 357.942 279.227 357.942C279.178 357.877 279.123 357.816 279.064 357.761C288.425 349.642 313.426 327.768 328.502 313.363C333.769 308.326 337.98 304.276 341.32 301.036C344.094 304.466 345.952 307.03 346 307.763Z" fill="#DDAC8A"/>
<path d="M180.272 318.423C180.179 318.422 180.087 318.401 180.004 318.361L172.733 314.796C172.661 314.764 172.596 314.719 172.543 314.662C172.489 314.606 172.448 314.54 172.423 314.468C172.397 314.396 172.386 314.32 172.392 314.244C172.398 314.168 172.419 314.094 172.456 314.027C172.492 313.959 172.542 313.899 172.604 313.851C172.665 313.802 172.736 313.766 172.812 313.744C172.888 313.723 172.968 313.716 173.047 313.725C173.126 313.734 173.203 313.758 173.272 313.796L180.54 317.358C180.658 317.416 180.752 317.509 180.807 317.624C180.862 317.739 180.875 317.868 180.844 317.991C180.814 318.114 180.74 318.224 180.636 318.302C180.533 318.38 180.404 318.423 180.272 318.423Z" fill="#BDC0C9"/>
<path d="M174.251 325.55C174.183 325.551 174.115 325.539 174.052 325.515L162.35 321.529C162.274 321.507 162.203 321.47 162.143 321.421C162.082 321.372 162.032 321.312 161.997 321.244C161.961 321.176 161.94 321.102 161.935 321.026C161.93 320.95 161.942 320.874 161.968 320.802C161.995 320.73 162.036 320.665 162.09 320.609C162.144 320.553 162.21 320.508 162.282 320.477C162.355 320.446 162.433 320.429 162.513 320.428C162.592 320.427 162.671 320.441 162.745 320.469L174.447 324.458C174.577 324.503 174.685 324.59 174.754 324.704C174.824 324.818 174.849 324.952 174.825 325.082C174.802 325.212 174.732 325.33 174.627 325.415C174.522 325.501 174.389 325.548 174.251 325.55Z" fill="#BDC0C9"/>
<path d="M288.65 307.653C288.507 307.655 288.369 307.607 288.261 307.518C288.152 307.43 288.082 307.306 288.061 307.172C288.041 307.037 288.073 306.899 288.151 306.785C288.229 306.671 288.347 306.588 288.485 306.552L295.411 304.635C295.484 304.615 295.561 304.609 295.637 304.617C295.713 304.626 295.787 304.649 295.854 304.684C295.92 304.72 295.979 304.768 296.026 304.826C296.074 304.883 296.108 304.949 296.129 305.02C296.17 305.162 296.15 305.314 296.075 305.442C296 305.571 295.875 305.666 295.727 305.707L288.803 307.623C288.753 307.639 288.702 307.649 288.65 307.653Z" fill="#BDC0C9"/>
<path d="M285.992 318.423C285.855 318.422 285.723 318.376 285.617 318.292C285.512 318.208 285.441 318.092 285.415 317.963C285.39 317.834 285.413 317.701 285.479 317.586C285.546 317.472 285.652 317.383 285.779 317.335L298.106 312.823C298.179 312.79 298.259 312.773 298.339 312.771C298.42 312.769 298.5 312.783 298.574 312.812C298.649 312.841 298.716 312.884 298.773 312.939C298.829 312.994 298.873 313.059 298.902 313.131C298.931 313.203 298.945 313.279 298.942 313.356C298.938 313.433 298.919 313.509 298.884 313.578C298.849 313.647 298.8 313.709 298.739 313.76C298.678 313.81 298.607 313.848 298.53 313.871L286.193 318.384C286.129 318.407 286.061 318.42 285.992 318.423Z" fill="#BDC0C9"/>
<path d="M94.1305 327.597C94.0478 327.597 93.9661 327.58 93.8911 327.546L85.8781 324.126C85.736 324.064 85.6251 323.951 85.5695 323.812C85.5139 323.673 85.5181 323.518 85.5813 323.382C85.6126 323.314 85.6576 323.253 85.7136 323.203C85.7697 323.152 85.8356 323.112 85.9078 323.086C85.9799 323.06 86.0567 323.048 86.1338 323.05C86.2109 323.053 86.2867 323.069 86.357 323.1L94.3676 326.521C94.4921 326.572 94.5943 326.663 94.6566 326.778C94.7189 326.893 94.7375 327.026 94.7092 327.152C94.681 327.279 94.6077 327.393 94.5017 327.474C94.3958 327.555 94.2638 327.598 94.1281 327.597H94.1305Z" fill="#3E232C"/>
<path d="M110.08 137.537C109.937 137.536 109.799 137.486 109.692 137.395C109.585 137.305 109.516 137.18 109.498 137.044L107.822 124.418C107.803 124.27 107.845 124.12 107.941 124.002C108.037 123.884 108.177 123.807 108.332 123.788C108.409 123.777 108.487 123.781 108.562 123.8C108.638 123.819 108.708 123.852 108.769 123.897C108.831 123.942 108.882 123.999 108.92 124.064C108.958 124.129 108.982 124.2 108.991 124.274L110.666 136.902C110.686 137.051 110.643 137.2 110.548 137.318C110.452 137.436 110.311 137.513 110.157 137.532L110.08 137.537Z" fill="black"/>
<path d="M117.674 137.958C117.54 137.958 117.409 137.914 117.305 137.833C117.2 137.752 117.128 137.639 117.099 137.514L114.588 126.245C114.568 126.171 114.563 126.094 114.575 126.019C114.587 125.944 114.614 125.872 114.656 125.807C114.698 125.742 114.753 125.686 114.818 125.642C114.883 125.599 114.957 125.568 115.035 125.553C115.113 125.537 115.194 125.537 115.272 125.552C115.35 125.567 115.424 125.597 115.489 125.641C115.555 125.684 115.61 125.74 115.652 125.804C115.695 125.869 115.723 125.941 115.735 126.016L118.249 137.283C118.265 137.355 118.266 137.43 118.253 137.502C118.239 137.575 118.21 137.645 118.168 137.707C118.126 137.769 118.071 137.823 118.007 137.865C117.944 137.906 117.872 137.936 117.796 137.951C117.756 137.957 117.715 137.959 117.674 137.958Z" fill="black"/>
<path d="M210.572 142.42C210.487 142.417 210.403 142.396 210.327 142.36C210.251 142.324 210.183 142.273 210.129 142.211C210.074 142.148 210.034 142.075 210.011 141.997C209.988 141.919 209.982 141.837 209.995 141.756L212.283 129.748C212.296 129.674 212.324 129.604 212.365 129.541C212.407 129.478 212.461 129.424 212.525 129.381C212.589 129.338 212.661 129.308 212.737 129.293C212.813 129.277 212.891 129.276 212.968 129.29C213.122 129.316 213.259 129.4 213.349 129.523C213.439 129.645 213.474 129.797 213.447 129.945L211.156 141.955C211.131 142.086 211.059 142.205 210.952 142.29C210.846 142.375 210.711 142.421 210.572 142.42Z" fill="black"/>
<path d="M215.652 145.241C215.567 145.238 215.484 145.218 215.408 145.183C215.332 145.147 215.265 145.097 215.21 145.035C215.156 144.973 215.116 144.901 215.092 144.823C215.069 144.745 215.063 144.664 215.075 144.584L217.397 131.666C217.424 131.52 217.51 131.389 217.638 131.304C217.765 131.218 217.922 131.184 218.076 131.21C218.229 131.235 218.366 131.318 218.455 131.44C218.545 131.561 218.58 131.712 218.553 131.859L216.231 144.774C216.208 144.905 216.137 145.023 216.031 145.109C215.925 145.194 215.79 145.241 215.652 145.241Z" fill="black"/>
<path d="M223.574 139.714C223.491 139.712 223.41 139.694 223.334 139.661C223.264 139.63 223.201 139.586 223.149 139.531C223.097 139.477 223.056 139.413 223.03 139.343C223.003 139.274 222.991 139.2 222.995 139.126C222.998 139.052 223.017 138.98 223.05 138.913L224.62 135.684C224.653 135.618 224.699 135.557 224.755 135.508C224.812 135.458 224.879 135.419 224.951 135.394C225.024 135.368 225.101 135.357 225.178 135.36C225.255 135.363 225.331 135.381 225.4 135.412C225.47 135.443 225.533 135.487 225.585 135.541C225.638 135.596 225.678 135.659 225.705 135.729C225.731 135.798 225.743 135.872 225.74 135.945C225.736 136.019 225.718 136.092 225.685 136.158L224.115 139.389C224.067 139.487 223.99 139.57 223.894 139.627C223.798 139.685 223.687 139.715 223.574 139.714Z" fill="black"/>
</g>
<defs>
<clipPath id="clip0_4_165">
<rect width="346" height="365" fill="white"/>
</clipPath>
</defs>
</svg>
